<svg xmlns="http://www.w3.org/2000/svg" width="291" height="169" viewBox="0 0 291 169">
  <g id="btn-seeallgallery" transform="translate(-1598 -463)">
    <rect id="Rectangle_458" data-name="Rectangle 458" width="291" height="169" rx="4" transform="translate(1598 463)" fill="#ebeef2"/>
    <g id="Group_160" data-name="Group 160" transform="translate(0 0.5)">
      <g id="Group_159" data-name="Group 159">
        <path id="Path_2448" data-name="Path 2448" d="M33.1,2.616l1.68-.864c-.864-1.728-2.64-2.224-4.4-2.224C28.312-.472,26.04.584,26.04,2.68c0,2.5,2.112,3.136,4.4,3.392,1.488.176,2.592.592,2.592,1.648,0,1.216-1.248,1.68-2.576,1.68A3.192,3.192,0,0,1,27.3,7.624l-1.76.912c.816,2.048,2.592,2.752,4.88,2.752,2.5,0,4.7-1.072,4.7-3.568,0-2.688-2.16-3.264-4.512-3.568-1.344-.176-2.5-.432-2.5-1.408,0-.688.736-1.376,2.32-1.376A3.21,3.21,0,0,1,33.1,2.616Zm4.832,5.168h6.16c.016-.256.032-.5.032-.736C44.12,4.3,42.52,2.9,40.1,2.9a3.947,3.947,0,0,0-4.192,4.128,3.984,3.984,0,0,0,4.336,4.208A4.918,4.918,0,0,0,43.64,9.96L42.392,8.728a3.287,3.287,0,0,1-2.112.736C38.888,9.464,38.056,8.76,37.928,7.784Zm4.288-1.616H37.96a2.125,2.125,0,0,1,2.208-1.536C41.3,4.632,42.088,5.144,42.216,6.168Zm4.608,1.616h6.16c.016-.256.032-.5.032-.736C53.016,4.3,51.416,2.9,49,2.9a3.947,3.947,0,0,0-4.192,4.128,3.984,3.984,0,0,0,4.336,4.208,4.918,4.918,0,0,0,3.392-1.28L51.288,8.728a3.287,3.287,0,0,1-2.112.736C47.784,9.464,46.952,8.76,46.824,7.784Zm4.288-1.616H46.856a2.125,2.125,0,0,1,2.208-1.536C50.2,4.632,50.984,5.144,51.112,6.168ZM63.864,3.112,63.8,4.2a2.876,2.876,0,0,0-2.512-1.28,3.832,3.832,0,0,0-4.112,4.128A3.817,3.817,0,0,0,61.24,11.24,2.961,2.961,0,0,0,63.8,9.848L63.9,11h1.84V3.112Zm-2.4,1.552a2.259,2.259,0,0,1,2.3,2.384,2.321,2.321,0,1,1-4.64,0A2.246,2.246,0,0,1,61.464,4.664ZM69.432-.184H67.5V11h1.936Zm3.744,0H71.24V11h1.936Zm12,2.5L84.3,3.4a3.983,3.983,0,0,0-2.032-.5c-2.208,0-4.32,1.344-4.32,4,0,2.48,1.712,3.968,4.32,3.968,1.472,0,2.24.592,2.24,1.552,0,.976-1.184,1.44-2.272,1.44-1.232,0-2.4-.656-2.32-1.744H77.976c-.08,2.256,1.52,3.632,4.256,3.632,2.112,0,4.3-1.088,4.3-3.328a2.605,2.605,0,0,0-1.952-2.56A3.024,3.024,0,0,0,86.536,6.9a3.41,3.41,0,0,0-.912-2.352L86.616,3.4Zm-2.912,2.4A2.191,2.191,0,1,1,79.9,6.9,2.145,2.145,0,0,1,82.264,4.712Zm11.84-1.6L94.04,4.2a2.876,2.876,0,0,0-2.512-1.28,3.832,3.832,0,0,0-4.112,4.128A3.817,3.817,0,0,0,91.48,11.24a2.961,2.961,0,0,0,2.56-1.392l.1,1.152h1.84V3.112ZM91.7,4.664a2.259,2.259,0,0,1,2.3,2.384,2.321,2.321,0,1,1-4.64,0A2.246,2.246,0,0,1,91.7,4.664ZM99.672-.184H97.736V11h1.936Zm3.744,0H101.48V11h1.936Zm3.312,7.968h6.16c.016-.256.032-.5.032-.736,0-2.752-1.6-4.144-4.016-4.144a3.947,3.947,0,0,0-4.192,4.128,3.984,3.984,0,0,0,4.336,4.208,4.918,4.918,0,0,0,3.392-1.28l-1.248-1.232a3.287,3.287,0,0,1-2.112.736C107.688,9.464,106.856,8.76,106.728,7.784Zm4.288-1.616H106.76a2.125,2.125,0,0,1,2.208-1.536C110.1,4.632,110.888,5.144,111.016,6.168Zm4.864-3.056h-1.808V11h1.952V6.84a1.812,1.812,0,0,1,1.968-2,2.1,2.1,0,0,1,1.408.512l.88-1.7a3.149,3.149,0,0,0-2.032-.736,2.327,2.327,0,0,0-2.224,1.1Zm12.88,0H126.6l-1.44,3.456-.816,2.176-.752-2.224-1.2-3.408H120.12l3.152,7.76-1.616,3.744H123.8Z" transform="translate(1666.5 539.5)" fill="#969da5"/>
        <path id="Icon_ionic-ios-arrow-back" data-name="Icon ionic-ios-arrow-back" d="M13.24,11.963,17.607,7.6a.825.825,0,1,0-1.168-1.165l-4.948,4.945a.823.823,0,0,0-.024,1.137L16.436,17.5A.825.825,0,0,0,17.6,16.331Z" transform="translate(1820.754 557.236) rotate(180)" fill="#969da5"/>
      </g>
    </g>
  </g>
</svg>
