<svg xmlns="http://www.w3.org/2000/svg" xmlns:xlink="http://www.w3.org/1999/xlink" width="534" height="139" viewBox="0 0 534 139">
  <defs>
    <clipPath id="clip-path">
      <rect width="534" height="139" fill="none"/>
    </clipPath>
  </defs>
  <g id="Repeat_Grid_1" data-name="Repeat Grid 1" opacity="0.5" clip-path="url(#clip-path)">
    <g transform="translate(-111 -380)">
      <circle id="Ellipse_112" data-name="Ellipse 112" cx="15" cy="15" r="15" transform="translate(111 380)" fill="#5e5ee6"/>
    </g>
    <g transform="translate(-31 -380)">
      <circle id="Ellipse_112-2" data-name="Ellipse 112" cx="15" cy="15" r="15" transform="translate(111 380)" fill="#5e5ee6"/>
    </g>
    <g transform="translate(49 -380)">
      <circle id="Ellipse_112-3" data-name="Ellipse 112" cx="15" cy="15" r="15" transform="translate(111 380)" fill="#5e5ee6"/>
    </g>
    <g transform="translate(129 -380)">
      <circle id="Ellipse_112-4" data-name="Ellipse 112" cx="15" cy="15" r="15" transform="translate(111 380)" fill="#5e5ee6"/>
    </g>
    <g transform="translate(209 -380)">
      <circle id="Ellipse_112-5" data-name="Ellipse 112" cx="15" cy="15" r="15" transform="translate(111 380)" fill="#5e5ee6"/>
    </g>
    <g transform="translate(289 -380)">
      <circle id="Ellipse_112-6" data-name="Ellipse 112" cx="15" cy="15" r="15" transform="translate(111 380)" fill="#5e5ee6"/>
    </g>
    <g transform="translate(369 -380)">
      <circle id="Ellipse_112-7" data-name="Ellipse 112" cx="15" cy="15" r="15" transform="translate(111 380)" fill="#5e5ee6"/>
    </g>
    <g transform="translate(-111 -300)">
      <circle id="Ellipse_112-8" data-name="Ellipse 112" cx="15" cy="15" r="15" transform="translate(111 380)" fill="#5e5ee6"/>
    </g>
    <g transform="translate(-31 -300)">
      <circle id="Ellipse_112-9" data-name="Ellipse 112" cx="15" cy="15" r="15" transform="translate(111 380)" fill="#5e5ee6"/>
    </g>
    <g transform="translate(49 -300)">
      <circle id="Ellipse_112-10" data-name="Ellipse 112" cx="15" cy="15" r="15" transform="translate(111 380)" fill="#5e5ee6"/>
    </g>
    <g transform="translate(129 -300)">
      <circle id="Ellipse_112-11" data-name="Ellipse 112" cx="15" cy="15" r="15" transform="translate(111 380)" fill="#5e5ee6"/>
    </g>
    <g transform="translate(209 -300)">
      <circle id="Ellipse_112-12" data-name="Ellipse 112" cx="15" cy="15" r="15" transform="translate(111 380)" fill="#5e5ee6"/>
    </g>
    <g transform="translate(289 -300)">
      <circle id="Ellipse_112-13" data-name="Ellipse 112" cx="15" cy="15" r="15" transform="translate(111 380)" fill="#5e5ee6"/>
    </g>
    <g transform="translate(369 -300)">
      <circle id="Ellipse_112-14" data-name="Ellipse 112" cx="15" cy="15" r="15" transform="translate(111 380)" fill="#5e5ee6"/>
    </g>
  </g>
</svg>
