<svg id="search" xmlns="http://www.w3.org/2000/svg" width="20" height="20" viewBox="0 0 20 20">
  <path id="Union_16" data-name="Union 16" d="M1665.99-491.25a.758.758,0,0,1-.538-.223l-4.045-4.045a8.846,8.846,0,0,1-5.742,2.1,8.924,8.924,0,0,1-8.914-8.914,8.924,8.924,0,0,1,8.914-8.914,8.924,8.924,0,0,1,8.914,8.914,8.846,8.846,0,0,1-2.1,5.743l4.045,4.045a.759.759,0,0,1,.223.538.759.759,0,0,1-.223.538A.759.759,0,0,1,1665.99-491.25Zm-10.325-18.479a7.4,7.4,0,0,0-7.392,7.392,7.4,7.4,0,0,0,7.392,7.393,7.343,7.343,0,0,0,5.227-2.165,7.343,7.343,0,0,0,2.166-5.227A7.4,7.4,0,0,0,1655.664-509.729Z" transform="translate(-1646.751 511.25)" fill="#fff"/>
</svg>
