<?xml version="1.0" encoding="utf-8"?>
<!-- Generator: Adobe Illustrator 25.2.3, SVG Export Plug-In . SVG Version: 6.00 Build 0)  -->
<svg version="1.1" id="Layer_1" xmlns="http://www.w3.org/2000/svg" xmlns:xlink="http://www.w3.org/1999/xlink" x="0px" y="0px"
	 viewBox="0 0 512 512" style="enable-background:new 0 0 512 512;" xml:space="preserve">
<style type="text/css">
	.st0{display:none;}
	.st1{display:inline;}
	.st2{fill:#00DF76;}
	.st3{display:inline;fill:#00AB5E;}
	.st4{display:inline;fill:#FFF5F5;}
	.st5{display:inline;fill:#DFEBF1;}
	.st6{fill:#23DD87;}
</style>
<g class="st0">
	<g class="st1">
		<ellipse class="st2" cx="256" cy="256" rx="255.9" ry="256"/>
	</g>
	<path class="st3" d="M256,0c-0.1,0-0.2,0-0.3,0v512c0.1,0,0.2,0,0.3,0c141.3,0,255.9-114.6,255.9-256S397.3,0,256,0L256,0z"/>
	<path class="st4" d="M111.3,261.1l103.5,103.5c4.5,4.5,11.8,4.5,16.3,0l169.9-169.9c4.5-4.5,4.5-11.8,0-16.3l-30.9-30.9
		c-4.5-4.5-11.8-4.5-16.3,0L230.2,271c-4.5,4.5-11.8,4.5-16.3,0l-55.4-55.4c-4.4-4.4-11.6-4.5-16.1-0.2l-30.8,29.1
		C106.8,249,106.7,256.5,111.3,261.1L111.3,261.1z"/>
	<path class="st5" d="M370.2,147.4c-4.5-4.5-11.8-4.5-16.3,0l-98.2,98.2v94.6l145.5-145.5c4.5-4.5,4.5-11.8,0-16.3L370.2,147.4z"/>
</g>
<path class="st6" d="M368.8,174.8c7.8,7.8,7.8,20.5,0,28.3L234.6,337.2c-7.8,7.8-20.5,7.8-28.3,0l-63.9-63.9
	c-7.8-7.8-7.8-20.5,0-28.3c7.8-7.8,20.5-7.8,28.3,0l49.7,49.7l120-120C348.3,167,361,167,368.8,174.8z M511.7,256
	c0,141.5-114.5,256-256,256c-141.5,0-256-114.5-256-256c0-141.5,114.5-256,256-256C397.2,0,511.7,114.5,511.7,256z M471.7,256
	c0-119.4-96.6-216-216-216c-119.4,0-216,96.6-216,216c0,119.4,96.6,216,216,216C375,472,471.7,375.4,471.7,256z"/>
</svg>
