<?xml version="1.0" encoding="utf-8"?>
<!-- Generator: Adobe Illustrator 25.2.3, SVG Export Plug-In . SVG Version: 6.00 Build 0)  -->
<svg version="1.1" id="Capa_1" xmlns="http://www.w3.org/2000/svg" xmlns:xlink="http://www.w3.org/1999/xlink" x="0px" y="0px"
	 viewBox="0 0 512 512" style="enable-background:new 0 0 512 512;" xml:space="preserve">
<style type="text/css">
	.st0{display:none;}
	.st1{display:inline;fill:#96C8EF;}
	.st2{display:inline;fill:#69B1E9;}
	.st3{fill:#E7E7E8;}
</style>
<g class="st0">
	<path class="st1" d="M132.5,186.3c-8.1-2-16.6-3-25.3-3C48,183.3,0,231.3,0,290.5s48,107.3,107.3,107.3h116.9V334h-53.3v-0.7
		l84.1-87.8h1l20-64.5l-20-66.8C203,114.2,156.9,143.3,132.5,186.3L132.5,186.3z"/>
	<path class="st2" d="M404.7,183.3c-8.7,0-17.2,1.1-25.3,3c-24.3-43-70.5-72.1-123.5-72.1v131.3h1l84.1,87.8v0.7h-53.3v63.7h116.9
		c59.2,0,107.3-48,107.3-107.3S464,183.3,404.7,183.3L404.7,183.3z"/>
</g>
<g>
	<g>
		<g>
			<circle class="st3" cx="204.4" cy="190.8" r="28.8"/>
			<path class="st3" d="M440.8,296.8c-13.6-12.8-30.8-21.2-49.6-23.6V126.8c0-15.6-6.4-29.6-16.4-40c-10.4-10.4-24.4-16.4-40-16.4
				h-232c-15.6,0-29.6,6.4-40,16.4c-10.4,10.4-16.4,24.4-16.4,40v184.4v17.2v37.2c0,15.6,6.4,29.6,16.4,40
				c10.4,10.4,24.4,16.4,40,16.4h224.4c14.8,12,33.2,19.6,53.6,19.6c23.6,0,44.8-9.6,60-24.8c15.2-15.2,24.8-36.4,24.8-60
				C465.6,333.2,456,312,440.8,296.8z M67.6,126.8c0-9.6,4-18.4,10.4-24.4C84.4,96,93.2,92,102.8,92h232c9.6,0,18.4,4,24.8,10.4
				c6.4,6.4,10.4,15.2,10.4,24.8V252l-59.2-59.2c-4-4-10.8-4.4-15.2,0l-89.2,89.6L146,221.6c-4-4-10.8-4.4-15.2,0l-63.2,64V126.8z
				 M102.4,401.6v-0.8c-9.6,0-18.4-4-24.8-10.4c-6-6.4-10-15.2-10-24.8v-37.2V316l70.8-71.2l60.4,60.4c4,4,10.8,4,15.2,0l89.2-89.6
				l58.4,58.8c-1.2,0.4-2.4,0.8-3.6,1.2c-1.6,0.4-3.2,0.8-5.2,1.6c-1.6,0.4-3.2,1.2-4.8,1.6c-1.2,0.4-2,0.8-3.2,1.6
				c-1.6,0.8-2.8,1.2-4,2c-2,1.2-4,2.4-6,3.6c-1.2,0.8-2,1.2-3.2,2c-0.8,0.4-1.2,0.8-2,1.2c-3.6,2.4-6.8,5.2-9.6,8.4
				c-15.2,15.2-24.8,36.4-24.8,60c0,6,0.8,11.6,2,17.6c0.4,1.6,0.8,2.8,1.2,4.4c1.2,4,2.4,8,4,12v0.4c1.6,3.2,3.2,6.8,5.2,9.6H102.4
				z M425.2,401.6C413.6,413.2,398,420,380.4,420c-16.8,0-32.4-6.8-43.6-17.6c-1.6-1.6-3.2-3.6-4.8-5.2c-1.2-1.2-2.4-2.8-3.6-4
				c-1.6-2-2.8-4.4-4-6.8c-0.8-1.6-1.6-2.8-2.4-4.4c-0.8-2-1.6-4.4-2-6.8c-0.4-1.6-1.2-3.6-1.6-5.2c-0.8-4-1.2-8.4-1.2-12.8
				c0-17.6,7.2-33.2,18.4-44.8c11.2-11.6,27.2-18.4,44.8-18.4s33.2,7.2,44.8,18.4c11.6,11.6,18.4,27.2,18.4,44.8
				C443.6,374.4,436.4,390,425.2,401.6z"/>
			<path class="st3" d="M388,314c-0.8-0.8-2-1.6-3.6-2.4c-1.2-0.4-2.4-0.8-3.6-0.8c-0.4,0-0.4,0-0.4,0c-0.4,0-0.4,0-0.4,0
				c-1.2,0-2.4,0.4-3.6,0.8s-2.4,1.2-3.6,2.4L348,338.8c-4,4-4,10.8,0,15.2c4,4,10.8,4,15.2,0l6.4-6.4v44c0,6,4.8,10.8,10.8,10.8
				s10.8-4.8,10.8-10.8v-44l6.4,6.4c4,4,10.8,4,15.2,0c4-4,4-10.8,0-15.2L388,314z"/>
		</g>
	</g>
</g>
</svg>
